<?xml version="1.0" encoding="UTF-8"?>
        <svg 
          width="412" 
          height="134" 
          viewBox="0 0 412 134" 
          xmlns="http://www.w3.org/2000/svg" 
          role="img" 
          aria-label="deep-learning-img-analysis"
        >
          <title>deep-learning-img-analysis</title>
          <style>:root {
          --canvas: #ffffff; --border: #d1d9e0; 
          --text: #59636e; --danger: #9a6700; --link: #0969da;
        }@media (prefers-color-scheme: dark) { :root {
          --canvas: #212830; --border: #3d444d; 
          --text: #9198a1; --danger: #c69026; --link: #478be6;
        } }text { 
              font-family: -apple-system, 
              BlinkMacSystemFont, 
              "Segoe UI", 
              "Noto Sans", 
              Helvetica, 
              Arial, 
              sans-serif; 
            } 
          </style>
          <defs><clipPath id="clip"><rect 
            x="0" 
            y="0" 
            width="412" 
            height="134" 
            rx="6" 
            ry="6"
          /></clipPath></defs>
          <g clip-path="url(#clip)">
            <rect 
              x="0" 
              y="0" 
              width="412" 
              height="134" 
              fill="var(--canvas)" 
              stroke="var(--border)"
            />
            <g transform="translate(16.00,17.97) scale(0.9412)"><path d="M2 2.5A2.5 2.5 0 0 1 4.5 0h8.75a.75.75 0 0 1 .75.75v3.5a.75.75 0 0 1-1.5 0V1.5h-8a1 1 0 0 0-1 1v6.708A2.492 2.492 0 0 1 4.5 9h1.75a.75.75 0 0 1 0 1.5H4.5a1 1 0 1 0 0 2h1.75a.75.75 0 0 1 0 1.5H4.5A2.5 2.5 0 0 1 2 11.5v-9Z" fill="var(--text)" stroke="none" stroke-width="0" fill-rule="evenodd"/></g><g transform="translate(16.00,17.97) scale(0.9412)"><path d="M9 10.168V9a3 3 0 1 1 6 0v1.168c.591.281 1 .884 1 1.582v2.5A1.75 1.75 0 0 1 14.25 16h-4.5A1.75 1.75 0 0 1 8 14.25v-2.5c0-.698.409-1.3 1-1.582ZM13.5 10V9a1.5 1.5 0 0 0-3 0v1Z" fill="var(--text)" stroke="none" stroke-width="0" fill-rule="evenodd"/></g>
        <a href="https://university-project-repos.github.io/deep-learning-img-analysis/" target="_blank"><text x="33" y="29.118000000000002" font-size="13.118" fill="var(--link)"><tspan font-weight="700">deep-learning-img-analysis</tspan></text></a><switch><g systemLanguage="af"><g transform="translate(349.00,16.32)"><rect width="47" height="16" rx="8" ry="8" fill="transparent" stroke="var(--border)"/><text x="8.0" y="12" font-size="9.182599999999999" fill="var(--text)" textLength="31" lengthAdjust="spacingAndGlyphs">Privaat</text></g></g><g systemLanguage="sq"><g transform="translate(349.00,16.32)"><rect width="47" height="16" rx="8" ry="8" fill="transparent" stroke="var(--border)"/><text x="8.0" y="12" font-size="9.182599999999999" fill="var(--text)" textLength="31" lengthAdjust="spacingAndGlyphs">Privat</text></g></g><g systemLanguage="am"><g transform="translate(349.00,16.32)"><rect width="47" height="16" rx="8" ry="8" fill="transparent" stroke="var(--border)"/><text x="8.0" y="12" font-size="9.182599999999999" fill="var(--text)" textLength="31" lengthAdjust="spacingAndGlyphs">የግል</text></g></g><g systemLanguage="ar"><g transform="translate(349.00,16.32)"><rect width="47" height="16" rx="8" ry="8" fill="transparent" stroke="var(--border)"/><text x="8.0" y="12" font-size="9.182599999999999" fill="var(--text)" textLength="31" lengthAdjust="spacingAndGlyphs">خاص</text></g></g><g systemLanguage="hy"><g transform="translate(349.00,16.32)"><rect width="47" height="16" rx="8" ry="8" fill="transparent" stroke="var(--border)"/><text x="8.0" y="12" font-size="9.182599999999999" fill="var(--text)" textLength="31" lengthAdjust="spacingAndGlyphs">Մասնավոր</text></g></g><g systemLanguage="as"><g transform="translate(349.00,16.32)"><rect width="47" height="16" rx="8" ry="8" fill="transparent" stroke="var(--border)"/><text x="8.0" y="12" font-size="9.182599999999999" fill="var(--text)" textLength="31" lengthAdjust="spacingAndGlyphs">ব্যক্তিগত</text></g></g><g systemLanguage="ay"><g transform="translate(349.00,16.32)"><rect width="47" height="16" rx="8" ry="8" fill="transparent" stroke="var(--border)"/><text x="8.0" y="12" font-size="9.182599999999999" fill="var(--text)" textLength="31" lengthAdjust="spacingAndGlyphs">Priwaru</text></g></g><g systemLanguage="az"><g transform="translate(349.00,16.32)"><rect width="47" height="16" rx="8" ry="8" fill="transparent" stroke="var(--border)"/><text x="8.0" y="12" font-size="9.182599999999999" fill="var(--text)" textLength="31" lengthAdjust="spacingAndGlyphs">Xüsusən</text></g></g><g systemLanguage="bm"><g transform="translate(349.00,16.32)"><rect width="47" height="16" rx="8" ry="8" fill="transparent" stroke="var(--border)"/><text x="8.0" y="12" font-size="9.182599999999999" fill="var(--text)" textLength="31" lengthAdjust="spacingAndGlyphs">Yɛrɛye</text></g></g><g systemLanguage="eu"><g transform="translate(349.00,16.32)"><rect width="47" height="16" rx="8" ry="8" fill="transparent" stroke="var(--border)"/><text x="8.0" y="12" font-size="9.182599999999999" fill="var(--text)" textLength="31" lengthAdjust="spacingAndGlyphs">Pribatua</text></g></g><g systemLanguage="be"><g transform="translate(349.00,16.32)"><rect width="47" height="16" rx="8" ry="8" fill="transparent" stroke="var(--border)"/><text x="8.0" y="12" font-size="9.182599999999999" fill="var(--text)" textLength="31" lengthAdjust="spacingAndGlyphs">Прыватны</text></g></g><g systemLanguage="bn"><g transform="translate(349.00,16.32)"><rect width="47" height="16" rx="8" ry="8" fill="transparent" stroke="var(--border)"/><text x="8.0" y="12" font-size="9.182599999999999" fill="var(--text)" textLength="31" lengthAdjust="spacingAndGlyphs">ব্যক্তিগত</text></g></g><g systemLanguage="bho"><g transform="translate(349.00,16.32)"><rect width="47" height="16" rx="8" ry="8" fill="transparent" stroke="var(--border)"/><text x="8.0" y="12" font-size="9.182599999999999" fill="var(--text)" textLength="31" lengthAdjust="spacingAndGlyphs">प्राइवेट</text></g></g><g systemLanguage="bs"><g transform="translate(349.00,16.32)"><rect width="47" height="16" rx="8" ry="8" fill="transparent" stroke="var(--border)"/><text x="8.0" y="12" font-size="9.182599999999999" fill="var(--text)" textLength="31" lengthAdjust="spacingAndGlyphs">Privatno</text></g></g><g systemLanguage="bg"><g transform="translate(349.00,16.32)"><rect width="47" height="16" rx="8" ry="8" fill="transparent" stroke="var(--border)"/><text x="8.0" y="12" font-size="9.182599999999999" fill="var(--text)" textLength="31" lengthAdjust="spacingAndGlyphs">Частно</text></g></g><g systemLanguage="ca"><g transform="translate(349.00,16.32)"><rect width="47" height="16" rx="8" ry="8" fill="transparent" stroke="var(--border)"/><text x="8.0" y="12" font-size="9.182599999999999" fill="var(--text)" textLength="31" lengthAdjust="spacingAndGlyphs">Privat</text></g></g><g systemLanguage="ceb"><g transform="translate(349.00,16.32)"><rect width="47" height="16" rx="8" ry="8" fill="transparent" stroke="var(--border)"/><text x="8.0" y="12" font-size="9.182599999999999" fill="var(--text)" textLength="31" lengthAdjust="spacingAndGlyphs">Pribado</text></g></g><g systemLanguage="ny"><g transform="translate(349.00,16.32)"><rect width="47" height="16" rx="8" ry="8" fill="transparent" stroke="var(--border)"/><text x="8.0" y="12" font-size="9.182599999999999" fill="var(--text)" textLength="31" lengthAdjust="spacingAndGlyphs">Zobisika</text></g></g><g systemLanguage="zh-CN"><g transform="translate(349.00,16.32)"><rect width="47" height="16" rx="8" ry="8" fill="transparent" stroke="var(--border)"/><text x="8.0" y="12" font-size="9.182599999999999" fill="var(--text)" textLength="31" lengthAdjust="spacingAndGlyphs">私人的</text></g></g><g systemLanguage="zh-TW"><g transform="translate(349.00,16.32)"><rect width="47" height="16" rx="8" ry="8" fill="transparent" stroke="var(--border)"/><text x="8.0" y="12" font-size="9.182599999999999" fill="var(--text)" textLength="31" lengthAdjust="spacingAndGlyphs">私人的</text></g></g><g systemLanguage="co"><g transform="translate(349.00,16.32)"><rect width="47" height="16" rx="8" ry="8" fill="transparent" stroke="var(--border)"/><text x="8.0" y="12" font-size="9.182599999999999" fill="var(--text)" textLength="31" lengthAdjust="spacingAndGlyphs">Privatu</text></g></g><g systemLanguage="hr"><g transform="translate(349.00,16.32)"><rect width="47" height="16" rx="8" ry="8" fill="transparent" stroke="var(--border)"/><text x="8.0" y="12" font-size="9.182599999999999" fill="var(--text)" textLength="31" lengthAdjust="spacingAndGlyphs">Privatno</text></g></g><g systemLanguage="cs"><g transform="translate(349.00,16.32)"><rect width="47" height="16" rx="8" ry="8" fill="transparent" stroke="var(--border)"/><text x="8.0" y="12" font-size="9.182599999999999" fill="var(--text)" textLength="31" lengthAdjust="spacingAndGlyphs">Soukromé</text></g></g><g systemLanguage="da"><g transform="translate(349.00,16.32)"><rect width="47" height="16" rx="8" ry="8" fill="transparent" stroke="var(--border)"/><text x="8.0" y="12" font-size="9.182599999999999" fill="var(--text)" textLength="31" lengthAdjust="spacingAndGlyphs">Privat</text></g></g><g systemLanguage="dv"><g transform="translate(349.00,16.32)"><rect width="47" height="16" rx="8" ry="8" fill="transparent" stroke="var(--border)"/><text x="8.0" y="12" font-size="9.182599999999999" fill="var(--text)" textLength="31" lengthAdjust="spacingAndGlyphs">އަމިއްލަ</text></g></g><g systemLanguage="doi"><g transform="translate(349.00,16.32)"><rect width="47" height="16" rx="8" ry="8" fill="transparent" stroke="var(--border)"/><text x="8.0" y="12" font-size="9.182599999999999" fill="var(--text)" textLength="31" lengthAdjust="spacingAndGlyphs">निजी</text></g></g><g systemLanguage="nl"><g transform="translate(349.00,16.32)"><rect width="47" height="16" rx="8" ry="8" fill="transparent" stroke="var(--border)"/><text x="8.0" y="12" font-size="9.182599999999999" fill="var(--text)" textLength="31" lengthAdjust="spacingAndGlyphs">Privé</text></g></g><g systemLanguage="en"><g transform="translate(349.00,16.32)"><rect width="47" height="16" rx="8" ry="8" fill="transparent" stroke="var(--border)"/><text x="8.0" y="12" font-size="9.182599999999999" fill="var(--text)" textLength="31" lengthAdjust="spacingAndGlyphs">Private</text></g></g><g systemLanguage="eo"><g transform="translate(349.00,16.32)"><rect width="47" height="16" rx="8" ry="8" fill="transparent" stroke="var(--border)"/><text x="8.0" y="12" font-size="9.182599999999999" fill="var(--text)" textLength="31" lengthAdjust="spacingAndGlyphs">Privata</text></g></g><g systemLanguage="et"><g transform="translate(349.00,16.32)"><rect width="47" height="16" rx="8" ry="8" fill="transparent" stroke="var(--border)"/><text x="8.0" y="12" font-size="9.182599999999999" fill="var(--text)" textLength="31" lengthAdjust="spacingAndGlyphs">Privaatne</text></g></g><g systemLanguage="ee"><g transform="translate(349.00,16.32)"><rect width="47" height="16" rx="8" ry="8" fill="transparent" stroke="var(--border)"/><text x="8.0" y="12" font-size="9.182599999999999" fill="var(--text)" textLength="31" lengthAdjust="spacingAndGlyphs">Ame ŋutᴐ ƒe</text></g></g><g systemLanguage="tl"><g transform="translate(349.00,16.32)"><rect width="47" height="16" rx="8" ry="8" fill="transparent" stroke="var(--border)"/><text x="8.0" y="12" font-size="9.182599999999999" fill="var(--text)" textLength="31" lengthAdjust="spacingAndGlyphs">Pribado</text></g></g><g systemLanguage="fi"><g transform="translate(349.00,16.32)"><rect width="47" height="16" rx="8" ry="8" fill="transparent" stroke="var(--border)"/><text x="8.0" y="12" font-size="9.182599999999999" fill="var(--text)" textLength="31" lengthAdjust="spacingAndGlyphs">Yksityinen</text></g></g><g systemLanguage="fr"><g transform="translate(349.00,16.32)"><rect width="47" height="16" rx="8" ry="8" fill="transparent" stroke="var(--border)"/><text x="8.0" y="12" font-size="9.182599999999999" fill="var(--text)" textLength="31" lengthAdjust="spacingAndGlyphs">Privé</text></g></g><g systemLanguage="fy"><g transform="translate(349.00,16.32)"><rect width="47" height="16" rx="8" ry="8" fill="transparent" stroke="var(--border)"/><text x="8.0" y="12" font-size="9.182599999999999" fill="var(--text)" textLength="31" lengthAdjust="spacingAndGlyphs">Privee</text></g></g><g systemLanguage="gl"><g transform="translate(349.00,16.32)"><rect width="47" height="16" rx="8" ry="8" fill="transparent" stroke="var(--border)"/><text x="8.0" y="12" font-size="9.182599999999999" fill="var(--text)" textLength="31" lengthAdjust="spacingAndGlyphs">Privado</text></g></g><g systemLanguage="ka"><g transform="translate(349.00,16.32)"><rect width="47" height="16" rx="8" ry="8" fill="transparent" stroke="var(--border)"/><text x="8.0" y="12" font-size="9.182599999999999" fill="var(--text)" textLength="31" lengthAdjust="spacingAndGlyphs">პირადი</text></g></g><g systemLanguage="de"><g transform="translate(349.00,16.32)"><rect width="47" height="16" rx="8" ry="8" fill="transparent" stroke="var(--border)"/><text x="8.0" y="12" font-size="9.182599999999999" fill="var(--text)" textLength="31" lengthAdjust="spacingAndGlyphs">Privat</text></g></g><g systemLanguage="el"><g transform="translate(349.00,16.32)"><rect width="47" height="16" rx="8" ry="8" fill="transparent" stroke="var(--border)"/><text x="8.0" y="12" font-size="9.182599999999999" fill="var(--text)" textLength="31" lengthAdjust="spacingAndGlyphs">Ιδιωτικός</text></g></g><g systemLanguage="gn"><g transform="translate(349.00,16.32)"><rect width="47" height="16" rx="8" ry="8" fill="transparent" stroke="var(--border)"/><text x="8.0" y="12" font-size="9.182599999999999" fill="var(--text)" textLength="31" lengthAdjust="spacingAndGlyphs">Jekuaa&apos;ỹva</text></g></g><g systemLanguage="gu"><g transform="translate(349.00,16.32)"><rect width="47" height="16" rx="8" ry="8" fill="transparent" stroke="var(--border)"/><text x="8.0" y="12" font-size="9.182599999999999" fill="var(--text)" textLength="31" lengthAdjust="spacingAndGlyphs">ખાનગી</text></g></g><g systemLanguage="ht"><g transform="translate(349.00,16.32)"><rect width="47" height="16" rx="8" ry="8" fill="transparent" stroke="var(--border)"/><text x="8.0" y="12" font-size="9.182599999999999" fill="var(--text)" textLength="31" lengthAdjust="spacingAndGlyphs">Prive</text></g></g><g systemLanguage="ha"><g transform="translate(349.00,16.32)"><rect width="47" height="16" rx="8" ry="8" fill="transparent" stroke="var(--border)"/><text x="8.0" y="12" font-size="9.182599999999999" fill="var(--text)" textLength="31" lengthAdjust="spacingAndGlyphs">Na mutum kansa</text></g></g><g systemLanguage="haw"><g transform="translate(349.00,16.32)"><rect width="47" height="16" rx="8" ry="8" fill="transparent" stroke="var(--border)"/><text x="8.0" y="12" font-size="9.182599999999999" fill="var(--text)" textLength="31" lengthAdjust="spacingAndGlyphs">Kūʻai</text></g></g><g systemLanguage="he"><g transform="translate(349.00,16.32)"><rect width="47" height="16" rx="8" ry="8" fill="transparent" stroke="var(--border)"/><text x="8.0" y="12" font-size="9.182599999999999" fill="var(--text)" textLength="31" lengthAdjust="spacingAndGlyphs">פְּרָטִי</text></g></g><g systemLanguage="hi"><g transform="translate(349.00,16.32)"><rect width="47" height="16" rx="8" ry="8" fill="transparent" stroke="var(--border)"/><text x="8.0" y="12" font-size="9.182599999999999" fill="var(--text)" textLength="31" lengthAdjust="spacingAndGlyphs">निजी</text></g></g><g systemLanguage="hmn"><g transform="translate(349.00,16.32)"><rect width="47" height="16" rx="8" ry="8" fill="transparent" stroke="var(--border)"/><text x="8.0" y="12" font-size="9.182599999999999" fill="var(--text)" textLength="31" lengthAdjust="spacingAndGlyphs">Tsis qhia luag tej li</text></g></g><g systemLanguage="hu"><g transform="translate(349.00,16.32)"><rect width="47" height="16" rx="8" ry="8" fill="transparent" stroke="var(--border)"/><text x="8.0" y="12" font-size="9.182599999999999" fill="var(--text)" textLength="31" lengthAdjust="spacingAndGlyphs">Magán</text></g></g><g systemLanguage="is"><g transform="translate(349.00,16.32)"><rect width="47" height="16" rx="8" ry="8" fill="transparent" stroke="var(--border)"/><text x="8.0" y="12" font-size="9.182599999999999" fill="var(--text)" textLength="31" lengthAdjust="spacingAndGlyphs">Einkamál</text></g></g><g systemLanguage="ig"><g transform="translate(349.00,16.32)"><rect width="47" height="16" rx="8" ry="8" fill="transparent" stroke="var(--border)"/><text x="8.0" y="12" font-size="9.182599999999999" fill="var(--text)" textLength="31" lengthAdjust="spacingAndGlyphs">Abughi nke oha</text></g></g><g systemLanguage="ilo"><g transform="translate(349.00,16.32)"><rect width="47" height="16" rx="8" ry="8" fill="transparent" stroke="var(--border)"/><text x="8.0" y="12" font-size="9.182599999999999" fill="var(--text)" textLength="31" lengthAdjust="spacingAndGlyphs">Pribado</text></g></g><g systemLanguage="id"><g transform="translate(349.00,16.32)"><rect width="47" height="16" rx="8" ry="8" fill="transparent" stroke="var(--border)"/><text x="8.0" y="12" font-size="9.182599999999999" fill="var(--text)" textLength="31" lengthAdjust="spacingAndGlyphs">Pribadi</text></g></g><g systemLanguage="ga"><g transform="translate(349.00,16.32)"><rect width="47" height="16" rx="8" ry="8" fill="transparent" stroke="var(--border)"/><text x="8.0" y="12" font-size="9.182599999999999" fill="var(--text)" textLength="31" lengthAdjust="spacingAndGlyphs">Príobháideach</text></g></g><g systemLanguage="it"><g transform="translate(349.00,16.32)"><rect width="47" height="16" rx="8" ry="8" fill="transparent" stroke="var(--border)"/><text x="8.0" y="12" font-size="9.182599999999999" fill="var(--text)" textLength="31" lengthAdjust="spacingAndGlyphs">Privato</text></g></g><g systemLanguage="ja"><g transform="translate(349.00,16.32)"><rect width="47" height="16" rx="8" ry="8" fill="transparent" stroke="var(--border)"/><text x="8.0" y="12" font-size="9.182599999999999" fill="var(--text)" textLength="31" lengthAdjust="spacingAndGlyphs">プライベート</text></g></g><g systemLanguage="jw"><g transform="translate(349.00,16.32)"><rect width="47" height="16" rx="8" ry="8" fill="transparent" stroke="var(--border)"/><text x="8.0" y="12" font-size="9.182599999999999" fill="var(--text)" textLength="31" lengthAdjust="spacingAndGlyphs">Swasta</text></g></g><g systemLanguage="kn"><g transform="translate(349.00,16.32)"><rect width="47" height="16" rx="8" ry="8" fill="transparent" stroke="var(--border)"/><text x="8.0" y="12" font-size="9.182599999999999" fill="var(--text)" textLength="31" lengthAdjust="spacingAndGlyphs">ಖಾಸಗಿ</text></g></g><g systemLanguage="kk"><g transform="translate(349.00,16.32)"><rect width="47" height="16" rx="8" ry="8" fill="transparent" stroke="var(--border)"/><text x="8.0" y="12" font-size="9.182599999999999" fill="var(--text)" textLength="31" lengthAdjust="spacingAndGlyphs">Жеке</text></g></g><g systemLanguage="km"><g transform="translate(349.00,16.32)"><rect width="47" height="16" rx="8" ry="8" fill="transparent" stroke="var(--border)"/><text x="8.0" y="12" font-size="9.182599999999999" fill="var(--text)" textLength="31" lengthAdjust="spacingAndGlyphs">ឯកចន</text></g></g><g systemLanguage="rw"><g transform="translate(349.00,16.32)"><rect width="47" height="16" rx="8" ry="8" fill="transparent" stroke="var(--border)"/><text x="8.0" y="12" font-size="9.182599999999999" fill="var(--text)" textLength="31" lengthAdjust="spacingAndGlyphs">Abikorera</text></g></g><g systemLanguage="gom"><g transform="translate(349.00,16.32)"><rect width="47" height="16" rx="8" ry="8" fill="transparent" stroke="var(--border)"/><text x="8.0" y="12" font-size="9.182599999999999" fill="var(--text)" textLength="31" lengthAdjust="spacingAndGlyphs">खाजगी</text></g></g><g systemLanguage="ko"><g transform="translate(349.00,16.32)"><rect width="47" height="16" rx="8" ry="8" fill="transparent" stroke="var(--border)"/><text x="8.0" y="12" font-size="9.182599999999999" fill="var(--text)" textLength="31" lengthAdjust="spacingAndGlyphs">사적인</text></g></g><g systemLanguage="kri"><g transform="translate(349.00,16.32)"><rect width="47" height="16" rx="8" ry="8" fill="transparent" stroke="var(--border)"/><text x="8.0" y="12" font-size="9.182599999999999" fill="var(--text)" textLength="31" lengthAdjust="spacingAndGlyphs">Sikrit</text></g></g><g systemLanguage="ku"><g transform="translate(349.00,16.32)"><rect width="47" height="16" rx="8" ry="8" fill="transparent" stroke="var(--border)"/><text x="8.0" y="12" font-size="9.182599999999999" fill="var(--text)" textLength="31" lengthAdjust="spacingAndGlyphs">Taybet</text></g></g><g systemLanguage="ckb"><g transform="translate(349.00,16.32)"><rect width="47" height="16" rx="8" ry="8" fill="transparent" stroke="var(--border)"/><text x="8.0" y="12" font-size="9.182599999999999" fill="var(--text)" textLength="31" lengthAdjust="spacingAndGlyphs">تایبەت</text></g></g><g systemLanguage="ky"><g transform="translate(349.00,16.32)"><rect width="47" height="16" rx="8" ry="8" fill="transparent" stroke="var(--border)"/><text x="8.0" y="12" font-size="9.182599999999999" fill="var(--text)" textLength="31" lengthAdjust="spacingAndGlyphs">Купуя</text></g></g><g systemLanguage="lo"><g transform="translate(349.00,16.32)"><rect width="47" height="16" rx="8" ry="8" fill="transparent" stroke="var(--border)"/><text x="8.0" y="12" font-size="9.182599999999999" fill="var(--text)" textLength="31" lengthAdjust="spacingAndGlyphs">ສ່ວນຕົວ</text></g></g><g systemLanguage="la"><g transform="translate(349.00,16.32)"><rect width="47" height="16" rx="8" ry="8" fill="transparent" stroke="var(--border)"/><text x="8.0" y="12" font-size="9.182599999999999" fill="var(--text)" textLength="31" lengthAdjust="spacingAndGlyphs">Privata</text></g></g><g systemLanguage="lv"><g transform="translate(349.00,16.32)"><rect width="47" height="16" rx="8" ry="8" fill="transparent" stroke="var(--border)"/><text x="8.0" y="12" font-size="9.182599999999999" fill="var(--text)" textLength="31" lengthAdjust="spacingAndGlyphs">Privāts</text></g></g><g systemLanguage="ln"><g transform="translate(349.00,16.32)"><rect width="47" height="16" rx="8" ry="8" fill="transparent" stroke="var(--border)"/><text x="8.0" y="12" font-size="9.182599999999999" fill="var(--text)" textLength="31" lengthAdjust="spacingAndGlyphs">Ya sekele</text></g></g><g systemLanguage="lt"><g transform="translate(349.00,16.32)"><rect width="47" height="16" rx="8" ry="8" fill="transparent" stroke="var(--border)"/><text x="8.0" y="12" font-size="9.182599999999999" fill="var(--text)" textLength="31" lengthAdjust="spacingAndGlyphs">Privatus</text></g></g><g systemLanguage="lg"><g transform="translate(349.00,16.32)"><rect width="47" height="16" rx="8" ry="8" fill="transparent" stroke="var(--border)"/><text x="8.0" y="12" font-size="9.182599999999999" fill="var(--text)" textLength="31" lengthAdjust="spacingAndGlyphs">Si kya buli omu</text></g></g><g systemLanguage="lb"><g transform="translate(349.00,16.32)"><rect width="47" height="16" rx="8" ry="8" fill="transparent" stroke="var(--border)"/><text x="8.0" y="12" font-size="9.182599999999999" fill="var(--text)" textLength="31" lengthAdjust="spacingAndGlyphs">Privat</text></g></g><g systemLanguage="mk"><g transform="translate(349.00,16.32)"><rect width="47" height="16" rx="8" ry="8" fill="transparent" stroke="var(--border)"/><text x="8.0" y="12" font-size="9.182599999999999" fill="var(--text)" textLength="31" lengthAdjust="spacingAndGlyphs">Приватен</text></g></g><g systemLanguage="mai"><g transform="translate(349.00,16.32)"><rect width="47" height="16" rx="8" ry="8" fill="transparent" stroke="var(--border)"/><text x="8.0" y="12" font-size="9.182599999999999" fill="var(--text)" textLength="31" lengthAdjust="spacingAndGlyphs">व्यक्तिगत</text></g></g><g systemLanguage="mg"><g transform="translate(349.00,16.32)"><rect width="47" height="16" rx="8" ry="8" fill="transparent" stroke="var(--border)"/><text x="8.0" y="12" font-size="9.182599999999999" fill="var(--text)" textLength="31" lengthAdjust="spacingAndGlyphs">TSY MIANKINA</text></g></g><g systemLanguage="ms"><g transform="translate(349.00,16.32)"><rect width="47" height="16" rx="8" ry="8" fill="transparent" stroke="var(--border)"/><text x="8.0" y="12" font-size="9.182599999999999" fill="var(--text)" textLength="31" lengthAdjust="spacingAndGlyphs">Persendirian</text></g></g><g systemLanguage="ml"><g transform="translate(349.00,16.32)"><rect width="47" height="16" rx="8" ry="8" fill="transparent" stroke="var(--border)"/><text x="8.0" y="12" font-size="9.182599999999999" fill="var(--text)" textLength="31" lengthAdjust="spacingAndGlyphs">സ്വകാര്യം</text></g></g><g systemLanguage="mt"><g transform="translate(349.00,16.32)"><rect width="47" height="16" rx="8" ry="8" fill="transparent" stroke="var(--border)"/><text x="8.0" y="12" font-size="9.182599999999999" fill="var(--text)" textLength="31" lengthAdjust="spacingAndGlyphs">Privat</text></g></g><g systemLanguage="mi"><g transform="translate(349.00,16.32)"><rect width="47" height="16" rx="8" ry="8" fill="transparent" stroke="var(--border)"/><text x="8.0" y="12" font-size="9.182599999999999" fill="var(--text)" textLength="31" lengthAdjust="spacingAndGlyphs">Muna</text></g></g><g systemLanguage="mr"><g transform="translate(349.00,16.32)"><rect width="47" height="16" rx="8" ry="8" fill="transparent" stroke="var(--border)"/><text x="8.0" y="12" font-size="9.182599999999999" fill="var(--text)" textLength="31" lengthAdjust="spacingAndGlyphs">खाजगी</text></g></g><g systemLanguage="mni-Mtei"><g transform="translate(349.00,16.32)"><rect width="47" height="16" rx="8" ry="8" fill="transparent" stroke="var(--border)"/><text x="8.0" y="12" font-size="9.182599999999999" fill="var(--text)" textLength="31" lengthAdjust="spacingAndGlyphs">ꯂꯟꯅꯥꯏ</text></g></g><g systemLanguage="lus"><g transform="translate(349.00,16.32)"><rect width="47" height="16" rx="8" ry="8" fill="transparent" stroke="var(--border)"/><text x="8.0" y="12" font-size="9.182599999999999" fill="var(--text)" textLength="31" lengthAdjust="spacingAndGlyphs">Mimal</text></g></g><g systemLanguage="mn"><g transform="translate(349.00,16.32)"><rect width="47" height="16" rx="8" ry="8" fill="transparent" stroke="var(--border)"/><text x="8.0" y="12" font-size="9.182599999999999" fill="var(--text)" textLength="31" lengthAdjust="spacingAndGlyphs">Хувийн</text></g></g><g systemLanguage="my"><g transform="translate(349.00,16.32)"><rect width="47" height="16" rx="8" ry="8" fill="transparent" stroke="var(--border)"/><text x="8.0" y="12" font-size="9.182599999999999" fill="var(--text)" textLength="31" lengthAdjust="spacingAndGlyphs">ကိုယ်ပိုင်</text></g></g><g systemLanguage="ne"><g transform="translate(349.00,16.32)"><rect width="47" height="16" rx="8" ry="8" fill="transparent" stroke="var(--border)"/><text x="8.0" y="12" font-size="9.182599999999999" fill="var(--text)" textLength="31" lengthAdjust="spacingAndGlyphs">निजी</text></g></g><g systemLanguage="no"><g transform="translate(349.00,16.32)"><rect width="47" height="16" rx="8" ry="8" fill="transparent" stroke="var(--border)"/><text x="8.0" y="12" font-size="9.182599999999999" fill="var(--text)" textLength="31" lengthAdjust="spacingAndGlyphs">Privat</text></g></g><g systemLanguage="or"><g transform="translate(349.00,16.32)"><rect width="47" height="16" rx="8" ry="8" fill="transparent" stroke="var(--border)"/><text x="8.0" y="12" font-size="9.182599999999999" fill="var(--text)" textLength="31" lengthAdjust="spacingAndGlyphs">ବ୍ୟକ୍ତିଗତ</text></g></g><g systemLanguage="om"><g transform="translate(349.00,16.32)"><rect width="47" height="16" rx="8" ry="8" fill="transparent" stroke="var(--border)"/><text x="8.0" y="12" font-size="9.182599999999999" fill="var(--text)" textLength="31" lengthAdjust="spacingAndGlyphs">Dhuunfaa</text></g></g><g systemLanguage="ps"><g transform="translate(349.00,16.32)"><rect width="47" height="16" rx="8" ry="8" fill="transparent" stroke="var(--border)"/><text x="8.0" y="12" font-size="9.182599999999999" fill="var(--text)" textLength="31" lengthAdjust="spacingAndGlyphs">شخصي</text></g></g><g systemLanguage="fa"><g transform="translate(349.00,16.32)"><rect width="47" height="16" rx="8" ry="8" fill="transparent" stroke="var(--border)"/><text x="8.0" y="12" font-size="9.182599999999999" fill="var(--text)" textLength="31" lengthAdjust="spacingAndGlyphs">خصوصی</text></g></g><g systemLanguage="pl"><g transform="translate(349.00,16.32)"><rect width="47" height="16" rx="8" ry="8" fill="transparent" stroke="var(--border)"/><text x="8.0" y="12" font-size="9.182599999999999" fill="var(--text)" textLength="31" lengthAdjust="spacingAndGlyphs">Prywatny</text></g></g><g systemLanguage="pt"><g transform="translate(349.00,16.32)"><rect width="47" height="16" rx="8" ry="8" fill="transparent" stroke="var(--border)"/><text x="8.0" y="12" font-size="9.182599999999999" fill="var(--text)" textLength="31" lengthAdjust="spacingAndGlyphs">Privado</text></g></g><g systemLanguage="pa"><g transform="translate(349.00,16.32)"><rect width="47" height="16" rx="8" ry="8" fill="transparent" stroke="var(--border)"/><text x="8.0" y="12" font-size="9.182599999999999" fill="var(--text)" textLength="31" lengthAdjust="spacingAndGlyphs">ਨਿਜੀ</text></g></g><g systemLanguage="qu"><g transform="translate(349.00,16.32)"><rect width="47" height="16" rx="8" ry="8" fill="transparent" stroke="var(--border)"/><text x="8.0" y="12" font-size="9.182599999999999" fill="var(--text)" textLength="31" lengthAdjust="spacingAndGlyphs">Sapanchasqa</text></g></g><g systemLanguage="ro"><g transform="translate(349.00,16.32)"><rect width="47" height="16" rx="8" ry="8" fill="transparent" stroke="var(--border)"/><text x="8.0" y="12" font-size="9.182599999999999" fill="var(--text)" textLength="31" lengthAdjust="spacingAndGlyphs">Privat</text></g></g><g systemLanguage="ru"><g transform="translate(349.00,16.32)"><rect width="47" height="16" rx="8" ry="8" fill="transparent" stroke="var(--border)"/><text x="8.0" y="12" font-size="9.182599999999999" fill="var(--text)" textLength="31" lengthAdjust="spacingAndGlyphs">Частный</text></g></g><g systemLanguage="sm"><g transform="translate(349.00,16.32)"><rect width="47" height="16" rx="8" ry="8" fill="transparent" stroke="var(--border)"/><text x="8.0" y="12" font-size="9.182599999999999" fill="var(--text)" textLength="31" lengthAdjust="spacingAndGlyphs">Tumaoti</text></g></g><g systemLanguage="sa"><g transform="translate(349.00,16.32)"><rect width="47" height="16" rx="8" ry="8" fill="transparent" stroke="var(--border)"/><text x="8.0" y="12" font-size="9.182599999999999" fill="var(--text)" textLength="31" lengthAdjust="spacingAndGlyphs">वैयक्तिक</text></g></g><g systemLanguage="gd"><g transform="translate(349.00,16.32)"><rect width="47" height="16" rx="8" ry="8" fill="transparent" stroke="var(--border)"/><text x="8.0" y="12" font-size="9.182599999999999" fill="var(--text)" textLength="31" lengthAdjust="spacingAndGlyphs">Prìobhaideach</text></g></g><g systemLanguage="nso"><g transform="translate(349.00,16.32)"><rect width="47" height="16" rx="8" ry="8" fill="transparent" stroke="var(--border)"/><text x="8.0" y="12" font-size="9.182599999999999" fill="var(--text)" textLength="31" lengthAdjust="spacingAndGlyphs">Poraebete</text></g></g><g systemLanguage="sr"><g transform="translate(349.00,16.32)"><rect width="47" height="16" rx="8" ry="8" fill="transparent" stroke="var(--border)"/><text x="8.0" y="12" font-size="9.182599999999999" fill="var(--text)" textLength="31" lengthAdjust="spacingAndGlyphs">Приватно</text></g></g><g systemLanguage="st"><g transform="translate(349.00,16.32)"><rect width="47" height="16" rx="8" ry="8" fill="transparent" stroke="var(--border)"/><text x="8.0" y="12" font-size="9.182599999999999" fill="var(--text)" textLength="31" lengthAdjust="spacingAndGlyphs">Lekunutu</text></g></g><g systemLanguage="sn"><g transform="translate(349.00,16.32)"><rect width="47" height="16" rx="8" ry="8" fill="transparent" stroke="var(--border)"/><text x="8.0" y="12" font-size="9.182599999999999" fill="var(--text)" textLength="31" lengthAdjust="spacingAndGlyphs">Zvakavanzika</text></g></g><g systemLanguage="sd"><g transform="translate(349.00,16.32)"><rect width="47" height="16" rx="8" ry="8" fill="transparent" stroke="var(--border)"/><text x="8.0" y="12" font-size="9.182599999999999" fill="var(--text)" textLength="31" lengthAdjust="spacingAndGlyphs">خانگي</text></g></g><g systemLanguage="si"><g transform="translate(349.00,16.32)"><rect width="47" height="16" rx="8" ry="8" fill="transparent" stroke="var(--border)"/><text x="8.0" y="12" font-size="9.182599999999999" fill="var(--text)" textLength="31" lengthAdjust="spacingAndGlyphs">පුද්ගලිකයි</text></g></g><g systemLanguage="sk"><g transform="translate(349.00,16.32)"><rect width="47" height="16" rx="8" ry="8" fill="transparent" stroke="var(--border)"/><text x="8.0" y="12" font-size="9.182599999999999" fill="var(--text)" textLength="31" lengthAdjust="spacingAndGlyphs">Súkromné</text></g></g><g systemLanguage="sl"><g transform="translate(349.00,16.32)"><rect width="47" height="16" rx="8" ry="8" fill="transparent" stroke="var(--border)"/><text x="8.0" y="12" font-size="9.182599999999999" fill="var(--text)" textLength="31" lengthAdjust="spacingAndGlyphs">Zasebno</text></g></g><g systemLanguage="so"><g transform="translate(349.00,16.32)"><rect width="47" height="16" rx="8" ry="8" fill="transparent" stroke="var(--border)"/><text x="8.0" y="12" font-size="9.182599999999999" fill="var(--text)" textLength="31" lengthAdjust="spacingAndGlyphs">Khaas ah</text></g></g><g systemLanguage="es"><g transform="translate(349.00,16.32)"><rect width="47" height="16" rx="8" ry="8" fill="transparent" stroke="var(--border)"/><text x="8.0" y="12" font-size="9.182599999999999" fill="var(--text)" textLength="31" lengthAdjust="spacingAndGlyphs">Privado</text></g></g><g systemLanguage="su"><g transform="translate(349.00,16.32)"><rect width="47" height="16" rx="8" ry="8" fill="transparent" stroke="var(--border)"/><text x="8.0" y="12" font-size="9.182599999999999" fill="var(--text)" textLength="31" lengthAdjust="spacingAndGlyphs">Pribadi</text></g></g><g systemLanguage="sw"><g transform="translate(349.00,16.32)"><rect width="47" height="16" rx="8" ry="8" fill="transparent" stroke="var(--border)"/><text x="8.0" y="12" font-size="9.182599999999999" fill="var(--text)" textLength="31" lengthAdjust="spacingAndGlyphs">Privat</text></g></g><g systemLanguage="sv"><g transform="translate(349.00,16.32)"><rect width="47" height="16" rx="8" ry="8" fill="transparent" stroke="var(--border)"/><text x="8.0" y="12" font-size="9.182599999999999" fill="var(--text)" textLength="31" lengthAdjust="spacingAndGlyphs">Privat</text></g></g><g systemLanguage="tg"><g transform="translate(349.00,16.32)"><rect width="47" height="16" rx="8" ry="8" fill="transparent" stroke="var(--border)"/><text x="8.0" y="12" font-size="9.182599999999999" fill="var(--text)" textLength="31" lengthAdjust="spacingAndGlyphs">Ьузъӣ</text></g></g><g systemLanguage="ta"><g transform="translate(349.00,16.32)"><rect width="47" height="16" rx="8" ry="8" fill="transparent" stroke="var(--border)"/><text x="8.0" y="12" font-size="9.182599999999999" fill="var(--text)" textLength="31" lengthAdjust="spacingAndGlyphs">தனியார்</text></g></g><g systemLanguage="tt"><g transform="translate(349.00,16.32)"><rect width="47" height="16" rx="8" ry="8" fill="transparent" stroke="var(--border)"/><text x="8.0" y="12" font-size="9.182599999999999" fill="var(--text)" textLength="31" lengthAdjust="spacingAndGlyphs">Шәхси</text></g></g><g systemLanguage="te"><g transform="translate(349.00,16.32)"><rect width="47" height="16" rx="8" ry="8" fill="transparent" stroke="var(--border)"/><text x="8.0" y="12" font-size="9.182599999999999" fill="var(--text)" textLength="31" lengthAdjust="spacingAndGlyphs">ప్రైవేట్</text></g></g><g systemLanguage="th"><g transform="translate(349.00,16.32)"><rect width="47" height="16" rx="8" ry="8" fill="transparent" stroke="var(--border)"/><text x="8.0" y="12" font-size="9.182599999999999" fill="var(--text)" textLength="31" lengthAdjust="spacingAndGlyphs">ส่วนตัว</text></g></g><g systemLanguage="ti"><g transform="translate(349.00,16.32)"><rect width="47" height="16" rx="8" ry="8" fill="transparent" stroke="var(--border)"/><text x="8.0" y="12" font-size="9.182599999999999" fill="var(--text)" textLength="31" lengthAdjust="spacingAndGlyphs">ብሕታዊ</text></g></g><g systemLanguage="ts"><g transform="translate(349.00,16.32)"><rect width="47" height="16" rx="8" ry="8" fill="transparent" stroke="var(--border)"/><text x="8.0" y="12" font-size="9.182599999999999" fill="var(--text)" textLength="31" lengthAdjust="spacingAndGlyphs">Xihundla</text></g></g><g systemLanguage="tr"><g transform="translate(349.00,16.32)"><rect width="47" height="16" rx="8" ry="8" fill="transparent" stroke="var(--border)"/><text x="8.0" y="12" font-size="9.182599999999999" fill="var(--text)" textLength="31" lengthAdjust="spacingAndGlyphs">Özel</text></g></g><g systemLanguage="tk"><g transform="translate(349.00,16.32)"><rect width="47" height="16" rx="8" ry="8" fill="transparent" stroke="var(--border)"/><text x="8.0" y="12" font-size="9.182599999999999" fill="var(--text)" textLength="31" lengthAdjust="spacingAndGlyphs">Hususy</text></g></g><g systemLanguage="ak"><g transform="translate(349.00,16.32)"><rect width="47" height="16" rx="8" ry="8" fill="transparent" stroke="var(--border)"/><text x="8.0" y="12" font-size="9.182599999999999" fill="var(--text)" textLength="31" lengthAdjust="spacingAndGlyphs">Kokoa mu</text></g></g><g systemLanguage="uk"><g transform="translate(349.00,16.32)"><rect width="47" height="16" rx="8" ry="8" fill="transparent" stroke="var(--border)"/><text x="8.0" y="12" font-size="9.182599999999999" fill="var(--text)" textLength="31" lengthAdjust="spacingAndGlyphs">Приватний</text></g></g><g systemLanguage="ur"><g transform="translate(349.00,16.32)"><rect width="47" height="16" rx="8" ry="8" fill="transparent" stroke="var(--border)"/><text x="8.0" y="12" font-size="9.182599999999999" fill="var(--text)" textLength="31" lengthAdjust="spacingAndGlyphs">نجی</text></g></g><g systemLanguage="ug"><g transform="translate(349.00,16.32)"><rect width="47" height="16" rx="8" ry="8" fill="transparent" stroke="var(--border)"/><text x="8.0" y="12" font-size="9.182599999999999" fill="var(--text)" textLength="31" lengthAdjust="spacingAndGlyphs">شەخسىي</text></g></g><g systemLanguage="uz"><g transform="translate(349.00,16.32)"><rect width="47" height="16" rx="8" ry="8" fill="transparent" stroke="var(--border)"/><text x="8.0" y="12" font-size="9.182599999999999" fill="var(--text)" textLength="31" lengthAdjust="spacingAndGlyphs">Xususiy</text></g></g><g systemLanguage="vi"><g transform="translate(349.00,16.32)"><rect width="47" height="16" rx="8" ry="8" fill="transparent" stroke="var(--border)"/><text x="8.0" y="12" font-size="9.182599999999999" fill="var(--text)" textLength="31" lengthAdjust="spacingAndGlyphs">Riêng tư</text></g></g><g systemLanguage="cy"><g transform="translate(349.00,16.32)"><rect width="47" height="16" rx="8" ry="8" fill="transparent" stroke="var(--border)"/><text x="8.0" y="12" font-size="9.182599999999999" fill="var(--text)" textLength="31" lengthAdjust="spacingAndGlyphs">Preifat</text></g></g><g systemLanguage="xh"><g transform="translate(349.00,16.32)"><rect width="47" height="16" rx="8" ry="8" fill="transparent" stroke="var(--border)"/><text x="8.0" y="12" font-size="9.182599999999999" fill="var(--text)" textLength="31" lengthAdjust="spacingAndGlyphs">Ngasese</text></g></g><g systemLanguage="yi"><g transform="translate(349.00,16.32)"><rect width="47" height="16" rx="8" ry="8" fill="transparent" stroke="var(--border)"/><text x="8.0" y="12" font-size="9.182599999999999" fill="var(--text)" textLength="31" lengthAdjust="spacingAndGlyphs">פּריוואַט</text></g></g><g systemLanguage="yo"><g transform="translate(349.00,16.32)"><rect width="47" height="16" rx="8" ry="8" fill="transparent" stroke="var(--border)"/><text x="8.0" y="12" font-size="9.182599999999999" fill="var(--text)" textLength="31" lengthAdjust="spacingAndGlyphs">Ikọkọ</text></g></g><g systemLanguage="zu"><g transform="translate(349.00,16.32)"><rect width="47" height="16" rx="8" ry="8" fill="transparent" stroke="var(--border)"/><text x="8.0" y="12" font-size="9.182599999999999" fill="var(--text)" textLength="31" lengthAdjust="spacingAndGlyphs">-Ngaziwa muntu</text></g></g><g><g transform="translate(349.00,16.32)"><rect width="47" height="16" rx="8" ry="8" fill="transparent" stroke="var(--border)"/><text x="8.0" y="12" font-size="9.182599999999999" fill="var(--text)" textLength="31" lengthAdjust="spacingAndGlyphs">Private</text></g></g></switch><switch><g systemLanguage="en"><text x="16" y="57.30" font-size="12.181000000000001" fill="var(--text)">Microcellular image analysis &amp; ResNet &amp; U-Net classifying diagnosis &amp;</text><text x="16" y="73.74" font-size="12.181000000000001" fill="var(--text)">treatment.</text></g><g systemLanguage="es"><text x="16" y="57.30" font-size="12.181000000000001" fill="var(--text)">Análisis de imágenes microcelulares y diagnóstico y tratamiento de</text><text x="16" y="73.74" font-size="12.181000000000001" fill="var(--text)">clasificación ResNet y U-Net.</text></g><g systemLanguage="fr"><text x="16" y="57.30" font-size="12.181000000000001" fill="var(--text)">Analyse d&apos;images microcellulaires et diagnostic et traitement de</text><text x="16" y="73.74" font-size="12.181000000000001" fill="var(--text)">classification ResNet et U-Net.</text></g><g systemLanguage="de"><text x="16" y="57.30" font-size="12.181000000000001" fill="var(--text)">Mikrozelluläre Bildanalyse und ResNet- und U-Net-Klassifizierung von</text><text x="16" y="73.74" font-size="12.181000000000001" fill="var(--text)">Diagnose und Behandlung.</text></g><g systemLanguage="pt"><text x="16" y="57.30" font-size="12.181000000000001" fill="var(--text)">Análise de imagens microcelulares e classificação de diagnóstico e</text><text x="16" y="73.74" font-size="12.181000000000001" fill="var(--text)">tratamento ResNet e U-Net.</text></g><g systemLanguage="ru"><text x="16" y="57.30" font-size="12.181000000000001" fill="var(--text)">Анализ микроклеточных изображений, а также ResNet и U-Net,</text><text x="16" y="73.74" font-size="12.181000000000001" fill="var(--text)">классифицирующие диагностику и лечение.</text></g><g systemLanguage="zh-CN"><text x="16" y="57.30" font-size="12.181000000000001" fill="var(--text)">微细胞图像分析&amp;ResNet&amp;U-Net分类诊断和治疗。</text></g><g systemLanguage="zh-TW"><text x="16" y="57.30" font-size="12.181000000000001" fill="var(--text)">微細胞圖像分析&amp;ResNet&amp;U-Net分類診斷和治療。</text></g><g systemLanguage="ja"><text x="16" y="57.30" font-size="12.181000000000001" fill="var(--text)">微小細胞画像解析、ResNet、U-Net の分類診断と治療。</text></g><g systemLanguage="ko"><text x="16" y="57.30" font-size="12.181000000000001" fill="var(--text)">미세세포 영상 분석 및 ResNet &amp; U-Net 분류 진단 및 치료.</text></g><g systemLanguage="ar"><text x="16" y="57.30" font-size="12.181000000000001" fill="var(--text)">تحليل الصور الخلوية الدقيقة وتصنيف ResNet وU-Net للتشخيص</text><text x="16" y="73.74" font-size="12.181000000000001" fill="var(--text)">والعلاج.</text></g><g systemLanguage="hi"><text x="16" y="57.30" font-size="12.181000000000001" fill="var(--text)">माइक्रोसेलुलर छवि विश्लेषण और रेसनेट और यू-नेट वर्गीकरण निदान और</text><text x="16" y="73.74" font-size="12.181000000000001" fill="var(--text)">उपचार।</text></g><g systemLanguage="it"><text x="16" y="57.30" font-size="12.181000000000001" fill="var(--text)">Analisi di immagini microcellulari e diagnosi e trattamento di</text><text x="16" y="73.74" font-size="12.181000000000001" fill="var(--text)">classificazione ResNet e U-Net.</text></g><g systemLanguage="tr"><text x="16" y="57.30" font-size="12.181000000000001" fill="var(--text)">Mikro hücresel görüntü analizi ve ResNet ve U-Net sınıflandırıcı</text><text x="16" y="73.74" font-size="12.181000000000001" fill="var(--text)">teşhis ve tedavi.</text></g><g systemLanguage="nl"><text x="16" y="57.30" font-size="12.181000000000001" fill="var(--text)">Microcellulaire beeldanalyse &amp; ResNet &amp; U-Net classificeren diagnose</text><text x="16" y="73.74" font-size="12.181000000000001" fill="var(--text)">&amp; behandeling.</text></g><g systemLanguage="sv"><text x="16" y="57.30" font-size="12.181000000000001" fill="var(--text)">Mikrocellulär bildanalys &amp; ResNet &amp; U-Net klassificerande diagnos &amp;</text><text x="16" y="73.74" font-size="12.181000000000001" fill="var(--text)">behandling.</text></g><g systemLanguage="pl"><text x="16" y="57.30" font-size="12.181000000000001" fill="var(--text)">Analiza obrazu mikrokomórkowego oraz klasyfikacja diagnozy i</text><text x="16" y="73.74" font-size="12.181000000000001" fill="var(--text)">leczenia ResNet i U-Net.</text></g><g systemLanguage="id"><text x="16" y="57.30" font-size="12.181000000000001" fill="var(--text)">Analisis gambar mikroseluler &amp; diagnosis &amp; pengobatan klasifikasi</text><text x="16" y="73.74" font-size="12.181000000000001" fill="var(--text)">ResNet &amp; U-Net.</text></g><g systemLanguage="th"><text x="16" y="57.30" font-size="12.181000000000001" fill="var(--text)">การวิเคราะห์ภาพระดับไมโครเซลล์ &amp; ResNet &amp; U-Net</text><text x="16" y="73.74" font-size="12.181000000000001" fill="var(--text)">จำแนกการวินิจฉัยและการรักษา</text></g><g systemLanguage="vi"><text x="16" y="57.30" font-size="12.181000000000001" fill="var(--text)">Phân tích hình ảnh vi mô &amp; chẩn đoán &amp; điều trị phân loại ResNet &amp;</text><text x="16" y="73.74" font-size="12.181000000000001" fill="var(--text)">U-Net.</text></g><g systemLanguage="uk"><text x="16" y="57.30" font-size="12.181000000000001" fill="var(--text)">Аналіз мікроклітинного зображення та класифікація ResNet і</text><text x="16" y="73.74" font-size="12.181000000000001" fill="var(--text)">U-Net діагностика та лікування.</text></g><g><text x="16" y="57.30" font-size="12.181000000000001" fill="var(--text)">Microcellular image analysis &amp; ResNet &amp; U-Net classifying diagnosis &amp;</text><text x="16" y="73.74" font-size="12.181000000000001" fill="var(--text)">treatment.</text></g></switch><circle cx="22" cy="113.6595" r="6" fill="#3572A5"/><text x="34" y="118" font-size="12.181000000000001" fill="var(--text)">Python</text><a href="https://university-project-repos.github.io/deep-learning-img-analysis/" target="_blank"></a><a href="https://university-project-repos.github.io/deep-learning-img-analysis/" target="_blank"></a><a href="https://university-project-repos.github.io/deep-learning-img-analysis/" target="_blank"></a><a href="https://university-project-repos.github.io/deep-learning-img-analysis/" target="_blank"></a><a href="https://university-project-repos.github.io/deep-learning-img-analysis/" target="_blank"><g><rect x="87.52" y="105.82" width="22.46" height="12.18" fill="transparent" pointer-events="all" style="cursor:pointer;" /><g transform="translate(87.52,107.65) scale(0.5374)"><path d="M12 2.5a5.5 5.5 0 0 1 3.096 10.047 9.005 9.005 0 0 1 5.9 8.181.75.75 0 1 1-1.499.044 7.5 7.5 0 0 0-14.993 0 .75.75 0 0 1-1.5-.045 9.005 9.005 0 0 1 5.9-8.18A5.5 5.5 0 0 1 12 2.5ZM8 8a4 4 0 1 0 8 0 4 4 0 0 0-8 0Z" fill="var(--text)" stroke="none" stroke-width="0" fill-rule="evenodd"/></g><text x="103.52" y="118.00" font-size="12.181000000000001" fill="var(--text)">1</text></g></a>
          </g>
          <rect 
            x="0.5" 
            y="0.5" 
            width="411" 
            height="133" 
            rx="6" 
            ry="6" 
            fill="none" 
            stroke="var(--border)"
          />
        </svg>
        